<svg id="Layer_1" data-name="Layer 1" xmlns="http://www.w3.org/2000/svg" viewBox="0 0 2731.68 1536.48"><title>ARCH_svgArtboard 1</title><path d="M2048.76,0H0V512.16H76.66v-309L137.18,89.63l111-55.48H434.77l111,55.48,60.52,113.49v309H759.58v-309L820.1,89.63l111-55.48h869.54l111,55.48,60.52,113.49v309H1365.84v512.16H0v512.16H40.61V1133l29.74-55.77,54.53-27.26h91.7l54.53,27.26L300.85,1133v403.52h81.22V1133l29.74-55.77,54.53-27.26H558l54.53,27.26L642.31,1133v403.52h81.22V1133l29.74-55.77,54.53-27.26h91.7L954,1077.19,983.77,1133v403.52H1065V1133l29.74-55.77,54.53-27.26H1241l54.53,27.26,29.74,55.77v403.52H1442V715.28l60.53-113.49,111-55.48h186.63l111,55.48,60.53,113.49v821.2h760.12V0ZM2655,903.56,2481.61,1077H2298.83L2125.41,903.56V720.77l173.42-173.42h182.78L2655,720.77Zm-529.61-391.4v-309l60.52-113.49,111-55.48h186.62l111,55.48L2655,203.12v309Z"/></svg>