<svg id="Layer_1" data-name="Layer 1" xmlns="http://www.w3.org/2000/svg" viewBox="0 0 62.81 63.42"><defs><style>.cls-1{fill:#fff;fill-rule:evenodd;}</style></defs><title>Star</title><path class="cls-1" d="M42.32,25.68l-4.9-4.91L32.3,0H30.51L25.39,20.77l-4.9,4.91L0,30.82V32.6l20.49,5.14,4.9,4.91,5.12,20.77H32.3l5.12-20.77,4.9-4.91L62.81,32.6V30.82ZM24.5,23.89l-.22.9-.67.22Zm-3.34,3.58,2.67-.67-1.11,4H18Zm-2.9.67-2.67,2.68h-8ZM7.57,32.6h8l2.67,2.68ZM18,32.6h4.68l1.11,4L21.16,36Zm5.57,5.81.67.22.22.9Zm6.9,17.42L27.84,44.89l2.67,2.67Zm0-10.72L27,41.76l-.67-2.68,4.23,1.12Zm0-6.7-4.67-1.34L24.5,32.6h6Zm0-7.59h-6l1.34-4.47L30.51,25Zm0-7.6-4.23,1.12L27,21.66l3.56-3.35Zm0-7.37-2.67,2.68L30.51,7.59Zm14.26,15H40.09L39,26.8l2.67.67ZM39.2,25l-.67-.22-.22-.9ZM32.3,7.59,35,18.53,32.3,15.85Zm0,10.72,3.56,3.35.67,2.68L32.3,23.22Zm0,6.7L37,26.35l1.34,4.47h-6Zm0,30.82V47.56L35,44.89Zm3.56-14.07L32.3,45.11V40.2l4.23-1.12ZM37,37.07,32.3,38.41V32.6h6Zm1.34,2.46.22-.9.67-.22ZM41.65,36,39,36.62l1.11-4h4.68Zm2.9-.67,2.67-2.68h8Zm2.67-4.46-2.67-2.68,10.69,2.68Z"/></svg>