<svg id="Layer_1" data-name="Layer 1" xmlns="http://www.w3.org/2000/svg" xmlns:xlink="http://www.w3.org/1999/xlink" viewBox="0 0 3922.12 686.82"><defs><style>.cls-1{fill:none;clip-rule:evenodd;}.cls-2{clip-path:url(#clip-path);}.cls-3{fill:#96969d;}</style><clipPath id="clip-path"><path class="cls-1" d="M-569.25-1474.75h0c166.24,0,301,134.77,301,301v235h-602v-235C-870.25-1340-735.49-1474.75-569.25-1474.75Z"/></clipPath></defs><title>ANOMIE</title><path class="cls-3" d="M0,686.82v-7.4H35.13L97.06,648,324.46,0h70.25L606.4,633.2l30.5,30.51,47.15,15.71h35.12v7.4H453v-7.4h35.13l39.74-20.33,9.25-15.72L487.15,492.7H159L105.38,648l61,31.43h35.13v7.4ZM161.77,485.3H484.38L327.23,14.79Z"/><path class="cls-3" d="M776.48,686.82v-7.4h34.2L873.54,648V71.18L852.28,28.66,809.75,7.4H776.48V0H944.71l381.78,669.25V38.82L1263.63,7.4h-34.2V0h201.51V7.4h-34.2l-62.86,31.42v648H1262.7L880.93,17.56V648l62.86,31.43H978v7.4Z"/><path class="cls-3" d="M1717.49,686.82l-98-32.36-65.64-65.63-33.27-66.55-32.36-129.42V294l32.36-129.41L1553.87,98l65.64-65.63,98-32.35h131.26l98,32.35L2012.37,98l33.28,66.56L2078,294v98.91l-32.35,129.42-33.28,66.55-65.63,65.63-98,32.36Zm2.77-7.4H1846l95.21-95.21,32.35-63.78,32.36-128.49V294.88l-32.36-128.49-32.35-63.78L1846,7.4H1720.26l-95.21,95.21-32.35,63.78-32.36,128.49v97.06l32.36,128.49,32.35,63.78Z"/><path class="cls-3" d="M2167.65,686.82v-7.4h34.2L2264.71,648V69.33l-22.18-41.6L2201.85,7.4h-34.2V0h168.24l223.7,671.1L2783.29,0h168.24V7.4h-34.2l-40.68,20.33-22.18,41.6V617.49l22.18,41.6,40.68,20.33h34.2v7.4H2685.31v-7.4h34.2l40.67-20.33,22.19-41.6V25.88l-220,660.94h-70.25l-220-660.94V648L2335,679.42h34.21v7.4Z"/><path class="cls-3" d="M3041.19,686.82v-7.4h34.2l40.67-20.33,22.19-41.6V69.33l-22.19-41.6L3075.39,7.4h-34.2V0h266.22V7.4h-34.2l-40.67,20.33-22.19,41.6V617.49l22.19,41.6,40.67,20.33h34.2v7.4Z"/><path class="cls-3" d="M3397.07,686.82v-7.4h34.2L3472,659.09l22.18-41.6V69.33L3472,27.73,3431.27,7.4h-34.2V0h492.7V199.67h-7.4L3861.11,69.33l-26.8-38.83-110-23.1h-95.21l-40.67,20.33-22.19,41.6v254.2h60.09l85-21.26,20.34-20.33L3753,196h7.39V458.5H3753l-21.26-86-20.34-20.34-85-21.26h-60.09V617.49l22.19,41.6,40.67,20.33h127.57l110-23.11,26.81-38.82,21.26-130.34h7.39V686.82Z"/></svg>